<svg data-v-423bf9ae="" xmlns="http://www.w3.org/2000/svg" viewBox="0 0 527 90" class="iconLeft"><!----><!----><!----><g data-v-423bf9ae="" id="34523a08-894f-4101-a4ed-a80c18a63ffa" fill="#D1A103" transform="matrix(5.830903811703725,0,0,5.830903811703725,101.4475147324298,2.3469397142517323)"><path d="M4.23 8.61L4.23 7.07L8.22 7.07L8.22 12.29L7.06 12.29L6.75 11.23L6.75 11.23Q6.29 11.83 5.62 12.14L5.62 12.14L5.62 12.14Q4.96 12.46 4.19 12.46L4.19 12.46L4.19 12.46Q2.38 12.46 1.43 11.23L1.43 11.23L1.43 11.23Q0.48 10.01 0.48 7.49L0.48 7.49L0.48 7.49Q0.48 4.98 1.53 3.75L1.53 3.75L1.53 3.75Q2.58 2.52 4.55 2.52L4.55 2.52L4.55 2.52Q5.54 2.52 6.38 2.93L6.38 2.93L6.38 2.93Q7.21 3.35 7.71 4.14L7.71 4.14L7.71 4.14Q8.22 4.94 8.22 6.05L8.22 6.05L6.38 6.05L6.38 6.05Q6.38 5.11 5.84 4.58L5.84 4.58L5.84 4.58Q5.31 4.06 4.49 4.06L4.49 4.06L4.49 4.06Q3.40 4.06 2.86 4.86L2.86 4.86L2.86 4.86Q2.32 5.66 2.32 7.14L2.32 7.14L2.32 7.84L2.32 7.84Q2.32 9.34 2.86 10.13L2.86 10.13L2.86 10.13Q3.40 10.92 4.51 10.92L4.51 10.92L4.51 10.92Q5.33 10.92 5.86 10.28L5.86 10.28L5.86 10.28Q6.38 9.65 6.38 8.61L6.38 8.61L4.23 8.61ZM12.25 12.46L12.25 12.46Q10.81 12.46 10.09 11.52L10.09 11.52L10.09 11.52Q9.37 10.57 9.37 8.61L9.37 8.61L9.37 8.61Q9.37 4.76 12.19 4.76L12.19 4.76L12.19 4.76Q13.54 4.76 14.20 5.70L14.20 5.70L14.20 5.70Q14.85 6.64 14.85 8.61L14.85 8.61L14.85 9.03L11.12 9.03L11.12 9.03Q11.13 10.07 11.39 10.58L11.39 10.58L11.39 10.58Q11.65 11.09 12.25 11.09L12.25 11.09L12.25 11.09Q12.68 11.09 12.94 10.72L12.94 10.72L12.94 10.72Q13.19 10.35 13.19 9.69L13.19 9.69L14.85 9.69L14.85 9.69Q14.85 11.06 14.14 11.76L14.14 11.76L14.14 11.76Q13.43 12.46 12.25 12.46L12.25 12.46ZM11.13 7.81L13.09 7.81L13.09 7.81Q13.09 6.13 12.19 6.13L12.19 6.13L12.19 6.13Q11.68 6.13 11.42 6.56L11.42 6.56L11.42 6.56Q11.17 6.99 11.13 7.81L11.13 7.81ZM17.92 12.46L17.92 12.46Q17.00 12.46 16.59 11.89L16.59 11.89L16.59 11.89Q16.18 11.33 16.18 10.49L16.18 10.49L16.18 6.34L15.44 6.34L15.44 4.93L16.18 4.93L16.44 2.86L17.86 2.86L17.86 4.93L18.93 4.93L18.93 6.34L17.86 6.34L17.86 10.44L17.86 10.44Q17.86 10.74 18.02 10.89L18.02 10.89L18.02 10.89Q18.17 11.05 18.45 11.05L18.45 11.05L18.93 11.05L18.93 12.29L18.93 12.29Q18.75 12.36 18.45 12.41L18.45 12.41L18.45 12.41Q18.16 12.46 17.92 12.46L17.92 12.46ZM26.56 8.61L26.56 7.07L30.55 7.07L30.55 12.29L29.39 12.29L29.08 11.23L29.08 11.23Q28.62 11.83 27.95 12.14L27.95 12.14L27.95 12.14Q27.29 12.46 26.52 12.46L26.52 12.46L26.52 12.46Q24.71 12.46 23.76 11.23L23.76 11.23L23.76 11.23Q22.81 10.01 22.81 7.49L22.81 7.49L22.81 7.49Q22.81 4.98 23.86 3.75L23.86 3.75L23.86 3.75Q24.91 2.52 26.88 2.52L26.88 2.52L26.88 2.52Q27.87 2.52 28.71 2.93L28.71 2.93L28.71 2.93Q29.54 3.35 30.04 4.14L30.04 4.14L30.04 4.14Q30.55 4.94 30.55 6.05L30.55 6.05L28.71 6.05L28.71 6.05Q28.71 5.11 28.18 4.58L28.18 4.58L28.18 4.58Q27.64 4.06 26.82 4.06L26.82 4.06L26.82 4.06Q25.73 4.06 25.19 4.86L25.19 4.86L25.19 4.86Q24.65 5.66 24.65 7.14L24.65 7.14L24.65 7.84L24.65 7.84Q24.65 9.34 25.19 10.13L25.19 10.13L25.19 10.13Q25.73 10.92 26.84 10.92L26.84 10.92L26.84 10.92Q27.66 10.92 28.19 10.28L28.19 10.28L28.19 10.28Q28.71 9.65 28.71 8.61L28.71 8.61L26.56 8.61ZM32.02 3.70L32.02 2.17L33.70 2.17L33.70 3.70L32.02 3.70ZM32.02 12.29L32.02 4.93L33.70 4.93L33.70 12.29L32.02 12.29ZM37.06 12.46L37.06 12.46Q36.13 12.46 35.73 11.89L35.73 11.89L35.73 11.89Q35.32 11.33 35.32 10.49L35.32 10.49L35.32 6.34L34.58 6.34L34.58 4.93L35.32 4.93L35.57 2.86L37.00 2.86L37.00 4.93L38.07 4.93L38.07 6.34L37.00 6.34L37.00 10.44L37.00 10.44Q37.00 10.74 37.16 10.89L37.16 10.89L37.16 10.89Q37.31 11.05 37.59 11.05L37.59 11.05L38.07 11.05L38.07 12.29L38.07 12.29Q37.88 12.36 37.59 12.41L37.59 12.41L37.59 12.41Q37.30 12.46 37.06 12.46L37.06 12.46ZM45.61 12.46L45.61 12.46Q44.04 12.46 43.18 11.64L43.18 11.64L43.18 11.64Q42.32 10.82 42.32 9.28L42.32 9.28L42.32 2.69L44.11 2.69L44.11 9.23L44.11 9.23Q44.11 10.05 44.51 10.49L44.51 10.49L44.51 10.49Q44.90 10.92 45.61 10.92L45.61 10.92L45.61 10.92Q46.33 10.92 46.73 10.49L46.73 10.49L46.73 10.49Q47.12 10.05 47.12 9.23L47.12 9.23L47.12 2.69L48.92 2.69L48.92 9.28L48.92 9.28Q48.92 10.82 48.05 11.64L48.05 11.64L48.05 11.64Q47.18 12.46 45.61 12.46L45.61 12.46ZM52.89 12.46L52.89 12.46Q51.63 12.46 50.92 11.82L50.92 11.82L50.92 11.82Q50.22 11.19 50.22 10.12L50.22 10.12L50.23 9.95L51.94 9.95L51.94 10.05L51.94 10.05Q51.95 10.60 52.25 10.84L52.25 10.84L52.25 10.84Q52.54 11.09 52.95 11.09L52.95 11.09L52.95 11.09Q53.34 11.09 53.63 10.90L53.63 10.90L53.63 10.90Q53.93 10.71 53.93 10.29L53.93 10.29L53.93 10.29Q53.93 9.84 53.59 9.64L53.59 9.64L53.59 9.64Q53.26 9.44 52.53 9.24L52.53 9.24L52.53 9.24Q51.83 9.04 51.39 8.85L51.39 8.85L51.39 8.85Q50.96 8.65 50.65 8.20L50.65 8.20L50.65 8.20Q50.33 7.76 50.33 7L50.33 7L50.33 7Q50.33 5.92 51.06 5.34L51.06 5.34L51.06 5.34Q51.80 4.76 52.96 4.76L52.96 4.76L52.96 4.76Q54.04 4.76 54.75 5.30L54.75 5.30L54.75 5.30Q55.45 5.84 55.45 6.76L55.45 6.76L55.44 7.08L53.73 7.08L53.73 7.06L53.73 7.06Q53.72 6.13 52.91 6.13L52.91 6.13L52.91 6.13Q52.51 6.13 52.28 6.33L52.28 6.33L52.28 6.33Q52.04 6.52 52.04 6.86L52.04 6.86L52.04 6.86Q52.04 7.25 52.36 7.43L52.36 7.43L52.36 7.43Q52.68 7.60 53.37 7.78L53.37 7.78L53.37 7.78Q54.08 7.97 54.53 8.17L54.53 8.17L54.53 8.17Q54.98 8.37 55.31 8.83L55.31 8.83L55.31 8.83Q55.64 9.28 55.64 10.08L55.64 10.08L55.64 10.08Q55.64 12.46 52.89 12.46L52.89 12.46ZM59.46 12.46L59.46 12.46Q58.02 12.46 57.30 11.52L57.30 11.52L57.30 11.52Q56.57 10.57 56.57 8.61L56.57 8.61L56.57 8.61Q56.57 4.76 59.40 4.76L59.40 4.76L59.40 4.76Q60.75 4.76 61.40 5.70L61.40 5.70L61.40 5.70Q62.06 6.64 62.06 8.61L62.06 8.61L62.06 9.03L58.32 9.03L58.32 9.03Q58.34 10.07 58.60 10.58L58.60 10.58L58.60 10.58Q58.86 11.09 59.46 11.09L59.46 11.09L59.46 11.09Q59.89 11.09 60.14 10.72L60.14 10.72L60.14 10.72Q60.40 10.35 60.40 9.69L60.40 9.69L62.06 9.69L62.06 9.69Q62.06 11.06 61.35 11.76L61.35 11.76L61.35 11.76Q60.63 12.46 59.46 12.46L59.46 12.46ZM58.34 7.81L60.30 7.81L60.30 7.81Q60.30 6.13 59.40 6.13L59.40 6.13L59.40 6.13Q58.88 6.13 58.63 6.56L58.63 6.56L58.63 6.56Q58.38 6.99 58.34 7.81L58.34 7.81ZM63.29 12.29L63.29 4.93L64.69 4.93L64.89 6.01L64.97 6.01L64.97 6.01Q65.16 5.45 65.45 5.10L65.45 5.10L65.45 5.10Q65.74 4.76 66.25 4.76L66.25 4.76L66.25 4.76Q66.51 4.76 66.71 4.81L66.71 4.81L66.71 4.81Q66.91 4.86 66.95 4.87L66.95 4.87L66.95 6.50L66.35 6.50L66.35 6.50Q65.73 6.50 65.35 6.89L65.35 6.89L65.35 6.89Q64.97 7.28 64.97 8.19L64.97 8.19L64.97 12.29L63.29 12.29ZM70.13 12.46L70.13 12.46Q68.87 12.46 68.16 11.82L68.16 11.82L68.16 11.82Q67.45 11.19 67.45 10.12L67.45 10.12L67.47 9.95L69.17 9.95L69.17 10.05L69.17 10.05Q69.19 10.60 69.48 10.84L69.48 10.84L69.48 10.84Q69.78 11.09 70.18 11.09L70.18 11.09L70.18 11.09Q70.57 11.09 70.87 10.90L70.87 10.90L70.87 10.90Q71.16 10.71 71.16 10.29L71.16 10.29L71.16 10.29Q71.16 9.84 70.83 9.64L70.83 9.64L70.83 9.64Q70.49 9.44 69.76 9.24L69.76 9.24L69.76 9.24Q69.06 9.04 68.63 8.85L68.63 8.85L68.63 8.85Q68.19 8.65 67.88 8.20L67.88 8.20L67.88 8.20Q67.56 7.76 67.56 7L67.56 7L67.56 7Q67.56 5.92 68.30 5.34L68.30 5.34L68.30 5.34Q69.03 4.76 70.20 4.76L70.20 4.76L70.20 4.76Q71.27 4.76 71.98 5.30L71.98 5.30L71.98 5.30Q72.69 5.84 72.69 6.76L72.69 6.76L72.67 7.08L70.97 7.08L70.97 7.06L70.97 7.06Q70.95 6.13 70.14 6.13L70.14 6.13L70.14 6.13Q69.75 6.13 69.51 6.33L69.51 6.33L69.51 6.33Q69.27 6.52 69.27 6.86L69.27 6.86L69.27 6.86Q69.27 7.25 69.59 7.43L69.59 7.43L69.59 7.43Q69.92 7.60 70.60 7.78L70.60 7.78L70.60 7.78Q71.32 7.97 71.76 8.17L71.76 8.17L71.76 8.17Q72.21 8.37 72.54 8.83L72.54 8.83L72.54 8.83Q72.87 9.28 72.87 10.08L72.87 10.08L72.87 10.08Q72.87 12.46 70.13 12.46L70.13 12.46Z"></path></g><!----><g data-v-423bf9ae="" id="84a9aab8-14fd-4a77-b9d6-a58906f74dae" transform="matrix(1.9392195468532774,0,0,1.9392195468532774,-54.68108266807076,-51.20824792013468)" stroke="none" fill="#D1A103"><path d="M71.72 43.9a12.89 12.89 0 0 0-2.87-8.06 13 13 0 0 0-.56-7.84 1.73 1.73 0 0 0-1.09-1c-.7-.24-3.35-.69-8.75 2.81a26.1 26.1 0 0 0-7.12-.86 26.13 26.13 0 0 0-7.13.86c-5.54-3.58-8.42-3-9-2.83A1.75 1.75 0 0 0 34.11 28a13 13 0 0 0-.58 7.82 12.22 12.22 0 0 0-2.86 8.12C30.67 55 37 58.34 42.8 59.52a9.38 9.38 0 0 0-.61 2.27 1 1 0 0 0 0 .25v3.06c-5.28.44-6.41-2.65-6.52-3a2.34 2.34 0 0 0-.09-.24 8.85 8.85 0 0 0-5-4.45 1.75 1.75 0 0 0-1.11 3.32 5.29 5.29 0 0 1 2.84 2.43c.7 2.27 3.56 5.86 9.86 5.46v2.88a1.75 1.75 0 0 0 3.5 0v-9.33a5 5 0 0 1 1.27-2.73 1.74 1.74 0 0 0-1-3c-6.1-.71-11.74-2.72-11.74-12.57a8.6 8.6 0 0 1 2.56-6.42 1.86 1.86 0 0 0 .4-1.86 8.67 8.67 0 0 1-.11-5.3 15.21 15.21 0 0 1 5.91 2.77 1.79 1.79 0 0 0 1.54.21 21.63 21.63 0 0 1 6.86-.93 21.56 21.56 0 0 1 6.85.93 1.78 1.78 0 0 0 1.54-.21 15.72 15.72 0 0 1 5.66-2.75 8.85 8.85 0 0 1-.13 5.35 1.73 1.73 0 0 0 .34 1.7 9.74 9.74 0 0 1 2.63 6.51c0 9.83-5.93 11.87-11.74 12.57a1.74 1.74 0 0 0-.84 3.13c.62.47 1.34 1.79 1.34 4v7.92a1.75 1.75 0 0 0 3.5 0v-7.92a10.66 10.66 0 0 0-.75-4.07c4.7-1 11.96-4.09 11.96-15.6z"></path></g><!----></svg>